<?xml version="1.0" encoding="UTF-8"?>
<!DOCTYPE svg PUBLIC "-//W3C//DTD SVG 1.1//EN" "http://www.w3.org/Graphics/SVG/1.1/DTD/svg11.dtd">
<svg fill-rule="evenodd" height="357.175975521" image-rendering="optimizeQuality" shape-rendering="geometricPrecision" text-rendering="geometricPrecision" viewBox="0 0 100.094 100.803" width="354.663770858" xml:space="preserve" xmlns="http://www.w3.org/2000/svg"><defs>
  
 </defs>
 
 
  
  
   <path d="m35.4044,15.4844 18.6988-14.4329c1.7968-1.3869 3.8547-.5918 5.0802,1.3185l12.1143,18.8822c1.2256,1.9103.5893,3.3419-1.2782,4.6316l-9.0074,6.2204c-.696.4807-.5609.714-.4685,1.5506 .4734,4.2821-.2215,7.3135-1.3704,10.1897-.6827-3.8118-2.3073-5.7399-4.6181-6.2956-.8675-.2086-1.1202-.2119-1.8226.2732l-2.371,1.6375c-1.8676,1.2897-3.6839-.2033-4.9379-2.0951l-11.5016-17.3507c-1.254-1.8918-.3144-3.1426 1.4824-4.5294z" fill="#fff212" stroke="#373435" stroke-width=".7056"></path>
   <path d="m6.8373,55.3792-5.89-17.6579c-.803-2.4073-1.3124-6.6641 2.0126-7.8429l21.3504-7.5694c2.1818-.7735 3.3459.3379 3.9344,2.4897l2.787,10.1904c.2409.8807.1542.8706 1.0581,1.0007 4.2056.605 7.0215,1.3338 9.353,3.2285-4.0694-.3996-6.6934.4622-7.9662,2.7602-.4439.8019-.187,1.1662.0315,1.9903l.6382,2.4077c.5719,2.1573-1.3401,3.0999-3.5032,3.9342l-20.0361,7.7276c-2.1632.8343-3.0659-.5492-3.7697-2.6591z" fill="#00a859" stroke="#373435" stroke-width=".7056"></path>
   <path d="m34.0049,89.465-20.3286,2.1901c-2.2424.2416-3.6376-1.8423-3.7869-4.1222l-1.2843-19.6268c-.1492-2.2799 1.671-4.4009 3.914-4.521l10.3846-.5558c.8691-.0465 1.0523.1463 1.4646-.6661 2.0145-3.9715 3.4695-5.5221 6.0926-7.4254-1.6778,3.7205-1.6472,5.4739-.0841,6.9835 .5568.5376.7214.6389 1.487.6039l3.1491-.1441c2.2426-.1026 2.2783,3.1672 2.3344,5.4583l.4581,18.7036c.0561,2.2912-1.5581,2.8804-3.8005,3.122z" fill="#373435" stroke="#373435" stroke-width=".7056"></path>
   <path d="m79.6073,78.3784-8.6031,19.5468c-.9412,2.1384-3.3097,2.9939-5.4002,2.2802l-20.2893-6.9271c-2.0905-.7137-3.2646-2.9832-2.392-5.148l4.2436-10.527c.2656-.6592.2601-.5918-.1685-1.1038-2.7424-3.2762-3.7059-6.2544-4.2859-9.3464 2.5981,2.2077 5.9742,6.5296 8.0367,1.5167l.9255-2.2495c.8883-2.1588 3.9127-1.2574 5.9777-.4784l20.7841,7.8407c2.0651.7791 2.1125,2.4573 1.1714,4.5958z" fill="#ed3237" stroke="#373435" stroke-width=".7056"></path>
   <path d="m80.4043,27.6052 17.7174,12.7833c1.8916,1.3648 2.112,4.0808.7489,5.8139l-14.4994,18.4347c-1.3631,1.7331-3.692,2.2617-5.6008.9241l-8.7105-6.1039c-.8615-.6037-.801-.486-1.7075-.0759-3.6973,1.673-6.6009,2.2312-9.6324,1.9699 2.8234-1.9111 7.8737-4.6573 3.5975-7.9883-1.4213-1.1071-2.9112-1.1143-2.0432-3.4174 .3785-1.0043 1.0713-2.0357 1.6658-2.8831l13.7226-19.5611c1.2684-1.8079 2.8501-1.261 4.7416.1038z" fill="#00afef" stroke="#373435" stroke-width=".7056"></path>
  
 
</svg>
